<svg viewBox="0 0 1500 500" xmlns="http://www.w3.org/2000/svg">
  <path d="M1240.45, 383.92l24.192, -0l135.36, -267.84l-24.192, 0l-135.36, 267.84Z"/>

  <path d="M1238.07, 355.92l27.817, 0l6.322, -33.19l-22.759, -0c-10.432, -0 -14.541, -8.851 -14.541, -14.857c-0, -1.581 0.316, -4.109 0.316, -4.109l15.489, -82.186l41.093, -0l6.638, -33.191l-41.093, 0l8.535, -44.254l-31.61, 0l-13.276, 44.254l-26.869, 0l-6.638, 33.191l26.868, -0l-16.121, 83.134c-0.316, 1.896 -0.948, 4.109 -0.948, 10.431c0, 22.443 15.173, 40.777 40.777, 40.777Z"/>

  <path d="M1086.35, 359.081c44.886, -0 68.594, -29.081 78.709, -50.576l-41.725, 0c-6.322, 7.903 -17.386, 15.805 -33.191, 15.805c-28.449, 0 -39.196, -17.069 -39.196, -39.512l122.014, -0c0, -0 2.845, -10.116 2.845, -30.03c0, -37.932 -25.604, -69.542 -72.386, -69.542c-49.628, 0 -90.405, 36.984 -90.405, 102.733c0, 47.415 32.874, 71.122 73.335, 71.122Zm-31.926, -101.152c6.322, -23.391 23.075, -37.932 45.202, -37.932c26.553, 0 38.248, 15.805 38.248, 37.932c0, 0 0.316, 0 -83.45, 0Z"/>

  <path d="M832.833, 355.92l37.932, 0l19.598, -101.152c3.794, -18.966 21.495, -34.771 40.461, -34.771c15.805, 0 28.449, 6.322 28.449, 26.869c0, 1.58 -0.632, 6.006 -0.948, 7.902l-19.598, 101.152l37.932, 0l19.914, -102.732c0.948, -5.374 2.213, -12.644 2.213, -17.386c-0, -37.932 -23.708, -50.576 -53.737, -50.576c-18.966, 0 -34.139, 7.903 -44.254, 17.386l-1.581, -0l-0.632, -14.225l-33.191, 0l-32.558, 167.533Z"/>

  <path d="M738.636, 359.081c44.886, -0 68.593, -29.081 78.708, -50.576l-41.725, 0c-6.322, 7.903 -17.385, 15.805 -33.19, 15.805c-28.449, 0 -39.197, -17.069 -39.197, -39.512l122.015, -0c-0, -0 2.845, -10.116 2.845, -30.03c-0, -37.932 -25.604, -69.542 -72.387, -69.542c-49.628, 0 -90.405, 36.984 -90.405, 102.733c0, 47.415 32.875, 71.122 73.336, 71.122Zm-31.927, -101.152c6.322, -23.391 23.076, -37.932 45.203, -37.932c26.552, 0 38.248, 15.805 38.248, 37.932c-0, 0 0.316, 0 -83.451, 0Z"/>

  <path d="M543.602, 359.081c18.966, -0 34.139, -7.902 44.254, -17.385l1.58, -0l0.633, 14.224l33.19, 0l32.558, -167.533l-37.932, 0l-19.598, 101.152c-3.793, 18.966 -21.495, 34.771 -40.46, 34.771c-15.805, 0 -28.449, -6.322 -28.449, -26.868c-0, -1.581 0.632, -6.006 0.948, -7.903l19.598, -101.152l-37.932, 0l-19.914, 102.733c-0.949, 5.373 -2.213, 12.644 -2.213, 17.385c0, 37.932 23.708, 50.576 53.737, 50.576Z"/>

  <path d="M384.604, 359.081c44.886, -0 68.594, -29.081 78.709, -50.576l-41.725, 0c-6.322, 7.903 -17.386, 15.805 -33.191, 15.805c-28.449, 0 -39.196, -17.069 -39.196, -39.512l122.014, -0c0, -0 2.845, -10.116 2.845, -30.03c0, -37.932 -25.604, -69.542 -72.387, -69.542c-49.627, 0 -90.404, 36.984 -90.404, 102.733c-0, 47.415 32.874, 71.122 73.335, 71.122Zm-31.926, -101.152c6.322, -23.391 23.075, -37.932 45.202, -37.932c26.552, 0 38.248, 15.805 38.248, 37.932c0, 0 0.316, 0 -83.45, 0Z"/>

  <path d="M118.448, 355.92l42.673, 0l23.708, -122.331l-1.264, -45.202l6.322, 0l4.741, 31.61l22.443, 135.923l55.95, 0l42.989, -221.27l-42.673, 0l-24.024, 122.963l1.581, 44.57l-6.322, 0l-5.374, -31.61l-22.127, -135.923l-55.633, 0l-42.99, 221.27Z"/>
</svg>
