<svg viewBox="0 0 1500 350" xmlns="http://www.w3.org/2000/svg">
  <path d="M1444.49, 78.828l-101.992, 204.232l4.257, 2.006l101.741, -204.235l-4.006, -2.003Zm-979.598, 149.58l-0, 44.715l31.054, -16.608l-2.091, -4.544c-1.402, 0.546 -2.923, 0.375 -4.166, -0.476c-1.242, -0.849 -1.956, -2.199 -1.956, -3.706l-0, -19.378l-0.011, -0l-0, -40.704c-0, -5.998 -0.612, -13.881 -5.384, -21.629l-0.022, -0.035c-4.43, -6.924 -10.093, -12.584 -16.829, -16.824c-7.103, -4.472 -14.493, -7.999 -22.662, -10.809c-8.666, -2.706 -17.466, -3.94 -26.17, -3.62c-18.237, 0.633 -36.714, 4.077 -53.43, 9.954l-3.979, 1.397l22.362, 20.185l1.524, -0.749c13.682, -6.742 47.768, -21.734 68.752, -15.352c11.41, 3.466 13.327, 18.644 13.542, 26.48c-11.233, 5.483 -24.852, 6.674 -38.036, 7.828c-23.354, 2.045 -47.501, 4.158 -61.25, 29.168c-5.929, 10.784 -5.475, 24.51 1.182, 35.821c7.921, 13.459 23.045, 21.221 41.494, 21.295l0.094, 0c15.019, -0.002 37.072, -14.751 56.197, -55.105l-0.199, 8.368l0, 4.328l-0.016, 0Zm569.916, -93.654c-40.161, -0 -69.312, 28.486 -69.312, 67.735c0, 39.252 29.151, 67.741 69.312, 67.741c40.158, 0 69.306, -28.489 69.306, -67.741c0.003, -39.249 -29.145, -67.735 -69.306, -67.735Zm-886.605, 0.275c-14.377, 0 -26.952, 3.246 -36.708, 9.432l-0, -24.875l0.005, -0l0, -44.5l-40.004, 19.022l0, 6.224l11.043, -4.306c1.406, -0.546 2.924, -0.375 4.166, 0.476c1.243, 0.849 1.957, 2.199 1.957, 3.706l-0, 147.936l-11.947, 10.79l3.529, 1.562c14.587, 6.458 31.821, 9.734 51.229, 9.734c51.006, 0 81.457, -26.249 81.457, -70.218c-0, -40.083 -24.8, -64.983 -64.727, -64.983l0, 0Zm206.233, 39.497l-1.24, -2.703c-0.149, -0.311 -0.303, -0.617 -0.46, -0.923l-0.195, -0.383c-11.311, -22.392 -34.483, -35.763 -61.983, -35.763c-40.161, -0 -69.312, 28.486 -69.312, 67.735c0, 9.919 1.819, 19.279 5.401, 27.826c0.286, 0.683 0.586, 1.358 0.895, 2.028c10.911, 23.723 34.469, 37.887 63.016, 37.887c25.274, 0 46.784, -11.123 59.01, -30.514l2.421, -3.844l-19.901, 0l-0.589, 1.675c-6.258, 17.794 -19.731, 26.875 -36.968, 24.911c-18.474, -2.102 -34.342, -16.554 -42.778, -38.819l100.559, -47.815l2.124, -1.298Zm265.631, 65.779c-11.159, 12.465 -26.707, 19.902 -41.61, 19.899l-0.058, 0c-32.402, -0.039 -52.458, -38.111 -52.458, -73.362c0, -26.754 12.892, -43.373 33.648, -43.373c16.38, -0 34.556, 10.679 44.202, 25.974l1.596, 2.526l21.97, -19.992l-2.347, -1.83c-14.493, -11.28 -32.835, -16.319 -56.081, -15.393c-40.932, 1.623 -68.433, 28.845 -68.433, 67.733c0, 39.251 29.151, 67.741 69.309, 67.741c23.219, -0 43.387, -9.217 55.337, -25.296l1.816, -2.475l-5.403, -3.819l-1.488, 1.667Zm699.964, 11.515c-3.326, 2.052 -6.764, 4.177 -10.095, 4.416c-8.459, 0.618 -15.025, -1.198 -19.516, -5.378c-5.221, -4.857 -7.866, -13.098 -7.866, -24.497l-0, -64.639l-0.05, 0l0, -8.332c7.831, 0.028 22.436, 0.157 28.36, 0.218l0.978, 0.011l20.866, -18.865l-49.708, -0l0, -28.82l-40.004, 47.454l16.664, -0l0, 70.036l0.083, -0c0.251, 17.193 4.381, 29.881 12.36, 37.642c6.051, 5.888 14.079, 8.867 23.883, 8.867c0.452, -0 0.906, -0.006 1.364, -0.019c5.802, -0.16 14.889, -5.55 26.164, -12.578l4.515, -2.797l0, -7.175l-3.664, 1.913c-1.427, 0.749 -2.871, 1.639 -4.334, 2.543l-0, -0Zm-553.285, 16.6l-51.743, 0l0, -5.136l2.268, -0.217c7.775, -0.744 13.636, -7.192 13.636, -15l-0, -66.791c-0, -27.544 -14.992, -33.327 -27.564, -33.327c-13.744, -0 -24.382, 7.15 -37.852, 16.203l-2.494, 1.673l0, 82.239c0, 7.809 5.861, 14.256 13.633, 15l2.268, 0.218l-0, 5.138l-54.643, 0l0, -5.136l2.268, -0.217c7.775, -0.744 13.636, -7.192 13.636, -15l-0, -148.01c-0, -1.508 -0.714, -2.858 -1.956, -3.706c-1.243, -0.852 -2.761, -1.025 -4.166, -0.477l-11.041, 4.307l0, -6.225l40.004, -19.022l0, 82.126c0.358, -0.239 0.719, -0.479 1.08, -0.721c14.088, -9.432 31.622, -21.169 52.094, -21.169c17.149, -0 37.59, 8.345 37.59, 48.112l0, 64.92c0.069, 7.748 5.897, 14.124 13.622, 14.865l0.842, 0.081l0.786, -0.076c7.775, -0.744 13.636, -7.191 13.636, -14.999l-0, -5.745l0.005, -0l0, -100.711l-13.575, 0l-0, -7.1l13.652, -0c1.056, -17.482 13.215, -33.524 36.18, -47.719c11.233, -6.874 24.114, -10.409 37.276, -10.324l0.014, 0c7.877, 0 15.661, 1.265 23.138, 3.756l4.067, 1.355l-18.667, 16.876l-1.576, -0.901c-11.219, -6.417 -23.119, -8.111 -29.211, -8.552c-3.984, -0.11 -7.999, 0.948 -11.525, 3.017c-10.534, 6.436 -16.634, 11.685 -16.943, 42.492l52.866, -0l-0, 7.1l-52.877, 0l0, 100.711l0.014, -0l0, 5.745c0, 7.808 5.861, 14.255 13.633, 14.999l2.268, 0.218l-0, 5.136l-54.643, -0l0, -0.006Zm487.908, -5.141l-2.268, -0.218c-7.756, -0.741 -13.606, -7.163 -13.63, -14.95l-0, -64.831c-0, -39.767 -20.442, -48.113 -37.591, -48.113c-20.471, -0 -38.006, 11.737 -52.096, 21.169c-0.537, 0.358 -1.053, 0.7 -1.582, 1.052c-1.317, -9.676 -5.408, -15.947 -11.112, -21.868l-1.262, -1.309l-33.617, 16.281l2.957, 5.092l7.169, -3.056c4.315, -1.835 9.362, 0.107 11.258, 4.337c1.389, 3.099 2.248, 8.927 2.248, 12.55l0.009, 77.914l0.011, -0l-0, 0.735c-0, 7.809 -5.861, 14.256 -13.634, 15l-2.267, 0.218l-0, 5.135l54.642, 0l0, -5.135l-2.267, -0.218c-7.773, -0.744 -13.633, -7.191 -13.633, -15l-0, -82.239l2.493, -1.673c13.471, -9.053 24.109, -16.203 37.852, -16.203c12.573, -0 27.564, 5.783 27.564, 33.327l-0, 66.874c-0.044, 7.77 -5.883, 14.173 -13.628, 14.914l-2.267, 0.218l-0, 5.135l15.895, 0l-0, 0.003l22.852, 0l0, -0.003l15.898, 0l0, -5.138l0.006, -0Zm-289.628, -122.125c-13.148, -9.186 -30.867, -8.348 -43.09, 2.042l-10.431, 8.864l0.176, 0.187c-0.107, 0.105 -0.209, 0.196 -0.319, 0.3c-2.023, 1.945 -3.998, 3.935 -5.935, 5.963c-1.488, 1.559 -2.885, 3.08 -4.249, 4.59c-0.275, -13.093 -4.8, -20.563 -11.553, -27.578l-1.262, -1.308l-33.617, 16.281l2.957, 5.091l7.169, -3.055c4.309, -1.833 9.362, 0.107 11.258, 4.337c1.389, 3.099 2.248, 8.927 2.248, 12.55l0.011, 72.899l0, 5.745c0, 7.808 -5.863, 14.255 -13.636, 14.999l-2.267, 0.218l-0, 5.136l54.642, -0l0, -5.136l-2.267, -0.218c-7.773, -0.744 -13.636, -7.191 -13.636, -14.999l-0, -74.181c2.86, -3.342 5.96, -6.717 9.453, -10.269c1.899, -1.923 3.833, -3.81 5.803, -5.642c1.369, -1.273 2.601, -2.373 3.772, -3.381l2.763, -2.124c5.489, -4.219 13.352, -3.739 18.287, 1.115l12.308, 12.107l20.279, -18.331l-8.864, -6.202Zm-853.531, 13.664c7.037, -6.927 16.413, -10.729 26.514, -10.729c28.847, -0 48.994, 28.525 48.994, 69.366c-0, 43.214 -21.993, 48.755 -41.153, 48.755c-13.928, -0 -25.178, -3.896 -34.355, -11.906l-0, -95.486Zm913.096, -11.46c31.871, 0 54.081, 39.285 54.081, 74.542c-0, 26.968 -12.895, 43.723 -33.648, 43.723c-31.87, -0 -54.08, -39.425 -54.08, -74.808c-0, -26.806 12.892, -43.457 33.647, -43.457Zm-612.826, 107.282c-11.903, -1.162 -20.078, -12.407 -22.9, -23.039c-2.295, -8.649 -1.813, -19.968 6.426, -25.798c12.635, -8.943 24.329, -9.621 37.871, -10.404c10.112, -0.584 20.541, -1.187 32.248, -5.356l-0, 1.819c-0.248, 6.193 -2.287, 12.814 -6.23, 20.245c-0.355, 0.673 -0.799, 1.552 -1.323, 2.601c-5.81, 11.583 -21.24, 42.354 -46.092, 39.932l-0, 0Zm-165.355, -68.953c2.816, -24.726 16.284, -39.428 35.596, -39.428c1.49, 0 3.017, 0.088 4.573, 0.265c17.766, 2.022 33.323, 15.677 41.963, 36.697l-79.065, 37.596c-3.323, -11.484 -4.384, -23.572 -3.067, -35.13l0, 0Z"/>
</svg>
